<?xml version="1.0" encoding="utf-8"?>
<!-- Generator: Adobe Illustrator 25.2.1, SVG Export Plug-In . SVG Version: 6.00 Build 0)  -->
<svg version="1.1" id="Capa_1" xmlns="http://www.w3.org/2000/svg" xmlns:xlink="http://www.w3.org/1999/xlink" x="0px" y="0px"
	 viewBox="0 0 375 812" style="enable-background:new 0 0 375 812;" xml:space="preserve">
<style type="text/css">
	.st0{clip-path:url(#SVGID_2_);}
	.st1{fill:#0F2617;}
	.st2{opacity:0.5;fill:#238C32;enable-background:new    ;}
	.st3{fill:#C4C4C4;filter:url(#Adobe_OpacityMaskFilter);}
	.st4{mask:url(#mask0_1_);}
	.st5{opacity:0.6;fill:#2B4835;enable-background:new    ;}
</style>
<g>
	<defs>
		<rect id="SVGID_1_" width="375" height="812"/>
	</defs>
	<clipPath id="SVGID_2_">
		<use xlink:href="#SVGID_1_"  style="overflow:visible;"/>
	</clipPath>
	<g class="st0">
		<rect class="st1" width="375" height="812"/>
		<path class="st2" d="M375,0H0l0,393.7c26.7,5.2,54,8.2,81.5,8.8c105.7,2.4,207.7-29,293.5-89.8L375,0z"/>
		<path class="st1" d="M375,0H0l0,388.9c26.7,5.2,54,8.2,81.5,8.8c105.7,2.4,207.7-29,293.5-89.8L375,0z"/>
		<defs>
			<filter id="Adobe_OpacityMaskFilter" filterUnits="userSpaceOnUse">
				<feColorMatrix  type="matrix" values="1 0 0 0 0  0 1 0 0 0  0 0 1 0 0  0 0 0 1 0"/>
			</filter>
		</defs>
		<mask maskUnits="userSpaceOnUse" id="mask0_1_">
			<rect y="44" class="st3" width="375" height="364"/>
		</mask>
		<g class="st4">
		</g>
		<path class="st5" d="M92.5,243.5c0.3-0.1,0.6-0.3,0.9-0.4c-0.2-0.2-0.5-0.4-0.7-0.5C92.5,242.9,92.5,243.2,92.5,243.5z"/>
		<path class="st5" d="M94.6,248.4c-0.3,0.1-0.6,0.3-0.9,0.4c0.2,0.2,0.5,0.4,0.8,0.5C94.4,249.1,94.5,248.7,94.6,248.4z"/>
	</g>
</g>
</svg>
