<svg width="93" height="110" viewBox="0 0 93 110" fill="none" xmlns="http://www.w3.org/2000/svg">
<path opacity="0.6" d="M44.6366 51.5139C45.0467 51.3498 45.4569 51.1037 45.867 50.9397C45.5389 50.6936 45.2108 50.4475 44.8827 50.2014C44.7186 50.6936 44.6366 51.1037 44.6366 51.5139Z" fill="#2B4835"/>
<path d="M92.049 28.3817C87.1273 25.3466 81.4673 23.7061 75.6433 23.7061C60.7962 23.7061 48.2459 34.1237 45.1288 48.2325C45.9491 48.8888 46.8514 49.545 47.7537 50.1192C48.8201 49.627 49.9685 49.2169 51.0348 48.8888C51.1169 48.8888 51.1989 48.8067 51.1989 48.8067C54.316 47.9044 57.5151 47.4122 60.7142 47.4122C67.6045 47.4122 74.4949 49.545 80.1549 53.7284C83.1899 51.2676 85.7328 48.3146 87.7835 44.8694C90.8186 39.8656 92.2131 34.2057 92.049 28.3817Z" fill="#238C32"/>
<path d="M87.8636 64.9663C83.9263 58.0759 77.5281 52.9902 69.8994 50.6934C63.2551 48.6427 56.2007 48.8887 49.8025 51.3496C55.7906 55.1229 60.3841 60.5368 63.0911 67.099C63.0911 67.1811 63.5832 68.3295 63.6653 68.4935C65.0598 72.1028 65.716 75.9581 65.88 79.8134V81.372C65.88 82.4383 65.798 83.5047 65.634 84.5711C68.8331 85.6374 72.1962 86.2116 75.6414 86.2116C81.4654 86.2116 87.1254 84.5711 92.0471 81.536C92.2111 75.712 90.8167 70.0521 87.8636 64.9663Z" fill="#238C32"/>
<path opacity="0.6" d="M47.5064 58.2402C47.0963 58.4042 46.6861 58.6503 46.276 58.8144C46.6041 59.0605 47.0143 59.3065 47.3424 59.5526C47.3424 59.2245 47.4244 58.7323 47.5064 58.2402Z" fill="#2B4835"/>
<path d="M46.9325 61.6853C46.1123 61.0291 45.2099 60.3728 44.3076 59.7986C43.5694 60.1268 42.7491 60.4549 41.9288 60.701C36.761 62.4235 31.2651 62.9157 25.8513 62.0134C20.7655 61.1931 15.9258 59.1424 11.8244 56.1894C8.78937 58.6502 6.24649 61.6033 4.19578 64.9664C1.32479 69.9701 -0.151721 75.7121 0.0123352 81.5361C4.93403 84.5712 10.594 86.2118 16.418 86.2118C24.4568 86.2118 32.0854 83.1767 37.9915 77.5988C42.503 73.1693 45.6201 67.6734 46.9325 61.6853Z" fill="#238C32"/>
<path d="M42.2571 58.4862C36.269 54.7129 31.6754 49.299 28.9685 42.7367C28.8864 42.5727 28.4763 41.4243 28.4763 41.3423C27.0818 37.733 26.4256 33.8777 26.2615 30.0224V28.4638C26.2615 27.3975 26.3436 26.3311 26.5076 25.2647C23.3085 24.1983 19.9454 23.6241 16.5002 23.6241C10.6762 23.6241 5.01619 25.2647 0.0944948 28.2998C-0.0695619 34.1238 1.32492 39.7837 4.27794 44.8695C8.2153 51.7599 14.6135 56.8456 22.2421 59.1424C28.8044 61.1931 35.8588 60.947 42.2571 58.4862Z" fill="#238C32"/>
<path d="M61.4508 93.3483C61.4508 93.2662 61.943 92.0358 61.943 92.0358C63.2555 88.5906 63.9117 84.9814 63.9937 81.2901V79.8136C63.9117 76.1223 63.2555 72.513 61.943 69.0679C61.943 68.9858 61.4508 67.8374 61.4508 67.7554C58.6619 61.1111 53.9042 55.6972 47.588 52.088C43.4866 49.7092 40.1235 46.346 37.8267 42.3266C37.3345 41.4243 36.4322 39.5377 36.1041 38.7174C34.8737 35.5183 34.2995 32.1551 34.3815 28.7099C34.4635 25.1827 35.2018 21.7375 36.6783 18.5384C37.0064 17.8001 37.9087 16.1596 37.9087 16.0776L38.2368 15.5034C40.2055 12.2222 42.8304 9.51529 45.9475 7.38255C49.3106 9.67934 52.0996 12.7144 54.0683 16.2416C55.8729 19.5227 57.0213 23.132 57.4314 26.9053C58.8259 25.921 60.9587 24.6905 63.5015 23.7882C62.7633 19.3587 61.1227 15.0932 58.6619 11.4019C55.8729 7.05444 52.0996 3.52722 47.588 0.902312C47.1779 0.656227 46.7678 0.410142 46.2756 0.164057L46.0295 0L45.7014 0.164057C45.2092 0.410142 44.7991 0.656227 44.3889 0.902312C38.1548 4.51156 33.3151 9.92543 30.5262 16.5697C30.5262 16.6518 30.034 17.8001 30.034 17.8822C28.7215 21.3274 28.0653 24.9366 27.9833 28.6279V30.1044C28.0653 33.7957 28.7215 37.4049 30.034 40.8501C30.034 40.9321 30.5262 42.0805 30.5262 42.1626C33.3151 48.8069 38.0728 54.2207 44.3889 57.83C48.4904 60.2088 51.8535 63.572 54.1503 67.5913C54.6425 68.4937 55.5448 70.3803 55.8729 71.2006C57.1033 74.3997 57.6775 77.7629 57.5955 81.2081C57.5135 84.7353 56.7752 88.1805 55.2987 91.3796C54.9706 92.1178 54.0683 93.7584 54.0683 93.8404L53.7402 94.4146C51.7715 97.6957 49.1466 100.403 46.0295 102.535C42.6663 100.239 39.8774 97.2036 37.9087 93.6764C36.1861 90.6413 35.1197 87.2781 34.7096 83.833C32.4128 85.2274 30.198 86.2118 28.6395 86.868C29.4598 91.0515 31.1004 95.0708 33.3971 98.5981C36.1861 102.946 39.9594 106.473 44.471 109.098C44.8811 109.344 45.2913 109.59 45.7834 109.836L46.1115 110L46.3576 109.836C46.8498 109.59 47.2599 109.344 47.6701 109.098C53.9042 105.406 58.6619 99.9925 61.4508 93.3483Z" fill="#2FF141"/>
</svg>
