<?xml version="1.0" encoding="utf-8"?>
<!-- Generator: Adobe Illustrator 25.2.1, SVG Export Plug-In . SVG Version: 6.00 Build 0)  -->
<svg version="1.1" id="Capa_1" xmlns="http://www.w3.org/2000/svg" xmlns:xlink="http://www.w3.org/1999/xlink" x="0px" y="0px"
	 viewBox="0 0 375 812" style="enable-background:new 0 0 375 812;" xml:space="preserve">
<style type="text/css">
	.st0{clip-path:url(#SVGID_2_);}
	.st1{fill:#0F2617;}
	.st2{opacity:8.000000e-02;}
	.st3{opacity:0.6;fill:#2B4835;enable-background:new    ;}
	.st4{fill:#238C32;}
	.st5{fill:#2FF141;}
	.st6{fill:#E9EDD9;}
</style>
<g>
	<defs>
		<rect id="SVGID_1_" width="375" height="812"/>
	</defs>
	<clipPath id="SVGID_2_">
		<use xlink:href="#SVGID_1_"  style="overflow:visible;"/>
	</clipPath>
	<g class="st0">
		<rect class="st1" width="375" height="812"/>
		<g class="st2">
			<path class="st3" d="M364.5,380.3c3-1.2,6.1-3,9.1-4.2c-2.4-1.8-4.8-3.6-7.3-5.4C365.1,374.2,364.5,377.2,364.5,380.3z"/>
			<path class="st4" d="M375,450.4c-4.2-3.1-8.6-6.2-12.9-8.9c-5.5,2.4-11.5,4.8-17.6,6.7c-38.1,12.7-78.7,16.3-118.7,9.7
				c-37.5-6.1-73.3-21.2-103.5-43c-22.4,18.2-41.2,40-56.3,64.8c-21.2,36.9-32.1,79.3-30.9,122.3c36.3,22.4,78.1,34.5,121.1,34.5
				c59.3,0,115.7-22.4,159.3-63.6c27.4-26.9,47.8-59,59.6-94.2"/>
			<path class="st4" d="M346.9,431.7c-44.2-27.9-78.1-67.8-98.1-116.3c-0.6-1.2-3.6-9.7-3.6-10.3c-10.3-26.6-15.1-55.1-16.3-83.6
				v-11.5c0-7.9,0.6-15.7,1.8-23.6c-23.6-7.9-48.4-12.1-73.9-12.1c-43,0-84.8,12.1-121.1,34.5c-1.2,43,9.1,84.8,30.9,122.3
				c29.1,50.9,76.3,88.4,132.6,105.4C247.6,451.7,299.7,449.9,346.9,431.7z"/>
			<g>
				<path class="st5" d="M260.3,311.2c20.6,49,55.7,89,102.3,115.7c4,2.3,8,4.8,11.8,7.4v-57.2c-24.9-16.9-45.6-38.9-60.2-64.6
					c-3.6-6.7-10.3-20.6-12.7-26.6c-9.1-23.6-13.3-48.4-12.7-73.9c0.6-26,6.1-51.5,17-75.1c2.4-5.5,9.1-17.6,9.1-18.2l2.4-4.2
					C331.8,90.2,352,68.6,375,52.8L374.8,0l-2.4,1.2c-3.6,1.8-6.7,3.6-9.7,5.4c-46,26.6-81.7,66.6-102.3,115.7
					c0,0.6-3.6,9.1-3.6,9.7c-9.7,25.4-14.5,52.1-15.1,79.3v10.9c0.6,27.2,5.5,53.9,15.1,79.3C256.7,302.2,260.3,310.6,260.3,311.2z"
					/>
				<path class="st5" d="M374.5,756.7c-24.7-16.9-45.2-39.3-59.6-65.2c-12.7-22.4-20.6-47.2-23.6-72.7c-17,10.3-33.3,17.6-44.8,22.4
					c6.1,30.9,18.2,60.6,35.1,86.6c20.6,32.1,48.4,58.1,81.7,77.5c3,1.8,6.1,3.6,9.7,5.5l1.5,0.8V756.7z"/>
			</g>
		</g>
		<path class="st6" d="M146.2,409.1v0.5c0,3.5,2.6,6.8,7.5,6.8c4.1,0,7-2.3,7-5.5c0-2.3-1.3-4.2-5-5.8l-5.5-2.2
			c-6.1-2.4-9.3-5.5-9.3-10.2c0-6.5,6-10.6,13.2-10.6c6.9,0,12.2,3.3,12.7,9.2l-7.2,0.9v-0.6c0-3.3-2.1-5.9-6.5-5.9
			c-3.4,0-6.3,2.2-6.3,5.1c0,2,1.3,4.3,5.9,6.1l5.9,2.3c5.7,2.3,8.5,5.2,8.5,9.6c0,7.2-6.8,11.2-14.3,11.2
			c-7.2,0-13.7-3.3-13.7-10.1L146.2,409.1z M176.9,401.8c0.9,8.4,6,12.5,12.1,12.5c4.5,0,8.5-1.8,11.2-4.7
			c-0.4,6-6.5,10.5-13.1,10.5c-9.2,0-16.5-7.6-16.5-18.4c0-9.9,5.9-19.6,16.9-19.6c6.6,0,13.2,4,13.2,11.5c0,0.5,0,1-0.1,1.4
			L176.9,401.8z M177,396.3h16.4c0-8-3.6-10.5-7.2-10.5C182.3,385.8,177.8,388.4,177,396.3z M220.3,399.1l-9.8,2.7
			c0.9,8.4,6,12.5,12.1,12.5c4.5,0,8.5-1.8,11.2-4.7c-0.4,6-6.5,10.4-13.1,10.4c-9.2,0-16.5-7.6-16.5-18.4c0-9.9,5.9-19.6,16.9-19.6
			c6.6,0,13.2,4,13.2,11.5c0,0.5,0,1-0.1,1.4L220.3,399.1z M210.6,396.3H227c0-8-3.6-10.5-7.2-10.5
			C216,385.8,211.4,388.4,210.6,396.3z M269.2,419.3h-6.3v-5.5c-2.6,3.9-6.7,6.2-10.6,6.2c-7.5,0-14.5-6.3-14.5-18
			c0-12,7.2-20,17.3-20c2.7,0,5.7,0.6,7.8,1.6v-15.4l6.3-1L269.2,419.3L269.2,419.3z M262.9,412.2v-22.5c-2-2.3-4.9-3.7-8-3.7
			c-5.2,0-10.4,4.1-10.4,14.3c0,8.2,3.8,14.7,11.2,14.7C258.3,414.8,261.1,413.7,262.9,412.2z M280.5,409.1v0.5
			c0,3.5,2.6,6.8,7.5,6.8c4.1,0,7-2.3,7-5.5c0-2.3-1.3-4.2-5-5.8l-5.5-2.2c-6.1-2.4-9.3-5.5-9.3-10.2c0-6.5,6-10.6,13.2-10.6
			c6.9,0,12.2,3.3,12.7,9.2l-7.2,0.9v-0.6c0-3.3-2.1-5.9-6.5-5.9c-3.4,0-6.3,2.2-6.3,5.1c0,2,1.3,4.3,5.9,6.1l5.9,2.3
			c5.7,2.2,8.5,5.2,8.5,9.5c0,7.2-6.8,11.2-14.3,11.2c-7.2,0-13.7-3.3-13.7-10.1L280.5,409.1z M309.6,410.4c-2.4,0-4.5,2-4.5,4.5
			c0,2.4,2,4.5,4.5,4.5c2.4,0,4.5-2,4.5-4.5C314.1,412.4,312.1,410.4,309.6,410.4z"/>
		<path class="st3" d="M92.5,398.5c0.3-0.1,0.6-0.3,0.9-0.4c-0.2-0.2-0.5-0.4-0.7-0.5C92.5,397.9,92.5,398.2,92.5,398.5z"/>
		<path class="st4" d="M126.9,381.6c-3.6-2.2-7.7-3.4-11.9-3.4c-10.8,0-19.9,7.6-22.2,17.8c0.6,0.5,1.3,1,1.9,1.4
			c0.8-0.4,1.6-0.7,2.4-0.9c0.1,0,0.1-0.1,0.1-0.1c2.3-0.7,4.6-1,6.9-1c5,0,10,1.6,14.1,4.6c2.2-1.8,4.1-3.9,5.5-6.4
			C126.1,390,127.1,385.9,126.9,381.6z"/>
		<path class="st4" d="M123.9,408.2c-2.9-5-7.5-8.7-13.1-10.4c-4.8-1.5-10-1.3-14.6,0.5c4.4,2.7,7.7,6.7,9.7,11.5
			c0,0.1,0.4,0.9,0.4,1c1,2.6,1.5,5.4,1.6,8.2v1.1c0,0.8-0.1,1.6-0.2,2.3c2.3,0.8,4.8,1.2,7.3,1.2c4.2,0,8.4-1.2,11.9-3.4
			C127.1,416.1,126,411.9,123.9,408.2z"/>
		<path class="st3" d="M94.6,403.4c-0.3,0.1-0.6,0.3-0.9,0.4c0.2,0.2,0.5,0.4,0.8,0.5C94.4,404.1,94.5,403.7,94.6,403.4z"/>
		<path class="st4" d="M94.1,405.9c-0.6-0.5-1.3-1-1.9-1.4c-0.5,0.2-1.1,0.5-1.7,0.7c-3.8,1.3-7.8,1.6-11.7,1
			c-3.7-0.6-7.2-2.1-10.2-4.2c-2.2,1.8-4.1,3.9-5.5,6.4c-2.1,3.6-3.2,7.8-3,12.1c3.6,2.2,7.7,3.4,11.9,3.4c5.8,0,11.4-2.2,15.7-6.3
			C90.9,414.2,93.2,410.2,94.1,405.9z"/>
		<path class="st4" d="M90.7,403.5c-4.4-2.7-7.7-6.7-9.7-11.5c-0.1-0.1-0.4-1-0.4-1c-1-2.6-1.5-5.4-1.6-8.2v-1.1
			c0-0.8,0.1-1.6,0.2-2.3c-2.3-0.8-4.8-1.2-7.3-1.2c-4.2,0-8.4,1.2-11.9,3.4c-0.1,4.2,0.9,8.4,3,12c2.9,5,7.5,8.7,13.1,10.4
			C80.9,405.5,86.1,405.3,90.7,403.5z"/>
		<path class="st5" d="M104.7,428.9c0-0.1,0.4-1,0.4-1c1-2.5,1.4-5.1,1.5-7.8V419c-0.1-2.7-0.5-5.3-1.5-7.8c0-0.1-0.4-0.9-0.4-1
			c-2-4.8-5.5-8.8-10.1-11.4c-3-1.7-5.4-4.2-7.1-7.1c-0.4-0.7-1-2-1.3-2.6c-0.9-2.3-1.3-4.8-1.3-7.3c0.1-2.6,0.6-5.1,1.7-7.4
			c0.2-0.5,0.9-1.7,0.9-1.8l0.2-0.4c1.4-2.4,3.3-4.4,5.6-5.9c2.4,1.7,4.5,3.9,5.9,6.4c1.3,2.4,2.1,5,2.4,7.8c1-0.7,2.6-1.6,4.4-2.3
			c-0.5-3.2-1.7-6.3-3.5-9c-2-3.2-4.8-5.7-8.1-7.6c-0.3-0.2-0.6-0.4-1-0.5l-0.2-0.1l-0.2,0.1c-0.4,0.2-0.7,0.4-1,0.5
			c-4.5,2.6-8.1,6.6-10.1,11.4c0,0.1-0.4,0.9-0.4,1c-1,2.5-1.4,5.1-1.5,7.8v1.1c0.1,2.7,0.5,5.3,1.5,7.8c0,0.1,0.4,0.9,0.4,1
			c2,4.8,5.5,8.8,10.1,11.4c3,1.7,5.4,4.2,7.1,7.1c0.4,0.7,1,2,1.3,2.6c0.9,2.3,1.3,4.8,1.3,7.3c-0.1,2.6-0.6,5.1-1.7,7.4
			c-0.2,0.5-0.9,1.7-0.9,1.8l-0.2,0.4c-1.4,2.4-3.3,4.4-5.6,5.9c-2.4-1.7-4.5-3.9-5.9-6.4c-1.3-2.2-2-4.7-2.3-7.2
			c-1.7,1-3.3,1.7-4.4,2.2c0.6,3,1.8,6,3.5,8.5c2,3.2,4.8,5.7,8.1,7.6c0.3,0.2,0.6,0.4,1,0.5l0.2,0.1l0.2-0.1c0.4-0.2,0.7-0.4,1-0.5
			C99.2,437.7,102.7,433.7,104.7,428.9z"/>
	</g>
</g>
</svg>
