<svg id="Capa_1" data-name="Capa 1" xmlns="http://www.w3.org/2000/svg" xmlns:xlink="http://www.w3.org/1999/xlink" viewBox="0 0 375 812"><defs><style>.cls-1{fill:none;}.cls-2{clip-path:url(#clip-path);}.cls-3{fill:#0f2617;}.cls-4{opacity:0.08;}.cls-5{fill:#2b4835;opacity:0.6;isolation:isolate;}.cls-6{fill:#238c32;}.cls-7{fill:#2ff141;}</style><clipPath id="clip-path"><rect class="cls-1" width="375" height="812"/></clipPath></defs><g class="cls-2"><rect class="cls-3" width="375" height="812"/><g class="cls-4"><path class="cls-5" d="M364.5,380.27c3-1.22,6.05-3,9.08-4.24l-7.26-5.45A30.13,30.13,0,0,0,364.5,380.27Z"/><path class="cls-6" d="M375,450.37c-4.2-3.13-8.56-6.17-12.93-8.95a147.82,147.82,0,0,1-17.56,6.66,245.66,245.66,0,0,1-222.22-33.3A251.09,251.09,0,0,0,66,479.57,233,233,0,0,0,35.09,601.89,230.57,230.57,0,0,0,156.2,636.4c59.34,0,115.65-22.41,159.25-63.58,27.35-26.86,47.76-59,59.55-94.17"/><path class="cls-6" d="M346.93,431.73a248.56,248.56,0,0,1-98.09-116.25c-.6-1.22-3.63-9.69-3.63-10.3-10.3-26.64-15.14-55.1-16.35-83.56v-11.5a155.18,155.18,0,0,1,1.81-23.62,233.22,233.22,0,0,0-73.87-12.11A230.57,230.57,0,0,0,35.7,208.9,230.93,230.93,0,0,0,199.19,436.58,224.77,224.77,0,0,0,346.93,431.73Z"/><path class="cls-7" d="M260.34,311.24A237.92,237.92,0,0,0,362.67,426.89q6.06,3.51,11.81,7.42V377.09a194.88,194.88,0,0,1-60.25-64.64c-3.63-6.66-10.29-20.59-12.72-26.65a191.82,191.82,0,0,1-12.71-73.87,188.6,188.6,0,0,1,16.95-75.08c2.42-5.45,9.09-17.56,9.09-18.17l2.42-4.24A200.7,200.7,0,0,1,375,52.81L374.78,0l-2.42,1.21c-3.63,1.82-6.66,3.63-9.69,5.45-46,26.64-81.74,66.61-102.33,115.66,0,.6-3.63,9.08-3.63,9.68a236.27,236.27,0,0,0-15.14,79.33v10.89a236.27,236.27,0,0,0,15.14,79.33C256.71,302.15,260.34,310.63,260.34,311.24Z"/><path class="cls-7" d="M374.48,756.68a194.53,194.53,0,0,1-83.26-137.84,338.89,338.89,0,0,1-44.81,22.4,246.51,246.51,0,0,0,35.12,86.59C302.12,759.92,330,786,363.28,805.34c3,1.82,6.05,3.63,9.69,5.45l1.51.76Z"/></g><path class="cls-5" d="M92.46,398.46c.3-.11.6-.29.9-.41l-.72-.54A3,3,0,0,0,92.46,398.46Z"/><path class="cls-5" d="M94.55,403.36c-.3.12-.6.29-.89.41.23.18.53.36.77.54A6.63,6.63,0,0,1,94.55,403.36Z"/></g></svg>