<svg width="47" height="47" viewBox="0 0 47 47" fill="none" xmlns="http://www.w3.org/2000/svg">
<rect x="0.800049" width="46.2" height="46.2" rx="7.77778" fill="#FDFFF2"/>
<path d="M26.1237 23.1L29.3999 21.3628V22.6611L26.501 24.1972C27.871 25.4041 29.3403 27.3242 29.3403 29.9757C29.3403 34.8947 24.3566 37.2537 24.1382 37.3451C24.0587 37.3817 23.9595 37.4 23.8602 37.4C23.7609 37.4 23.6815 37.3817 23.5822 37.3451C23.3837 37.2537 19.2934 35.3153 18.519 31.2923L19.6707 30.6889C20.0678 33.8524 22.9468 35.6811 23.8602 36.1931C24.8331 35.6445 28.1093 33.5781 28.1093 29.9757C28.1093 27.5619 26.64 25.8247 25.3891 24.7823L18.4396 28.4762V27.1779L22.9468 24.7823L26.1237 23.1ZM22.4902 21.5456C21.1995 20.5216 19.6111 18.7478 19.6111 16.2426C19.6111 12.6401 22.8873 10.5555 23.8602 10.0069C24.7934 10.5189 27.7717 12.4207 28.0696 15.694L29.2212 15.0722C28.5461 10.9395 24.3367 8.94628 24.1382 8.85485C23.9595 8.7817 23.7609 8.7817 23.5822 8.85485C23.3638 8.96457 18.3999 11.3052 18.3999 16.2426C18.3999 19.0038 19.9685 20.9605 21.3782 22.1491L18.4198 23.7217V25.0201L21.8945 23.1731L24.4559 21.8199L29.3999 19.1867V17.8884L22.4902 21.5456Z" fill="#15221E" stroke="#15221E" stroke-width="0.5" stroke-linecap="round" stroke-linejoin="round"/>
</svg>
