<svg width="33" height="59" viewBox="0 0 33 59" fill="none" xmlns="http://www.w3.org/2000/svg">
<path d="M17.8585 25.9708C10.5756 24.0779 8.23352 22.1208 8.23352 19.0729C8.23352 15.5758 11.4739 13.1375 16.896 13.1375C22.6069 13.1375 24.7244 15.8646 24.9169 19.875H32.0073C31.7827 14.3567 28.4139 9.2875 21.7085 7.65125V0.625H12.0835V7.555C5.85935 8.9025 0.854355 12.945 0.854355 19.1371C0.854355 26.5483 6.98227 30.2379 15.9335 32.3875C23.9544 34.3125 25.5585 37.1358 25.5585 40.1196C25.5585 42.3333 23.9864 45.8625 16.896 45.8625C10.2869 45.8625 7.68811 42.9108 7.33519 39.125H0.276855C0.661855 46.1512 5.92352 50.0975 12.0835 51.4129V58.375H21.7085V51.4771C27.9648 50.29 32.9377 46.6646 32.9377 40.0875C32.9377 30.9758 25.1414 27.8637 17.8585 25.9708Z" fill="#E9EDD9"/>
</svg>
