<svg width="24" height="24" viewBox="0 0 24 24" fill="none" xmlns="http://www.w3.org/2000/svg">
<rect x="1.5" y="7.33618" width="21" height="14.7143" rx="1.5" stroke="white"/>
<path d="M16.3995 14.7516C16.3995 13.4206 17.4786 12.3416 18.8096 12.3416H22.5001V17.1616H18.8096C17.4785 17.1616 16.3995 16.0826 16.3995 14.7516Z" stroke="white"/>
<circle cx="18.984" cy="14.6933" r="0.955024" stroke="white"/>
<path d="M4.24506 6.76582C3.99946 6.89206 3.9027 7.19349 4.02894 7.43909C4.15518 7.68469 4.45661 7.78145 4.70221 7.65521L4.24506 6.76582ZM13.9207 2.35471L14.1492 2.79941L14.1638 2.7919L14.1779 2.78346L13.9207 2.35471ZM15.4339 2.0055L15.4792 1.50756L15.4339 2.0055ZM18.5369 7.11799C18.6604 7.36498 18.9608 7.46509 19.2078 7.34159C19.4547 7.2181 19.5549 6.91776 19.4314 6.67077L18.5369 7.11799ZM4.70221 7.65521L14.1492 2.79941L13.6921 1.91002L4.24506 6.76582L4.70221 7.65521ZM14.1779 2.78346C14.2631 2.73233 14.4696 2.64891 14.7306 2.58352C14.9906 2.51838 15.2333 2.48933 15.3886 2.50345L15.4792 1.50756C15.1616 1.47869 14.7932 1.53694 14.4876 1.6135C14.183 1.68981 13.8692 1.80249 13.6634 1.92597L14.1779 2.78346ZM15.3886 2.50345C15.8444 2.54488 16.0813 2.75094 16.3443 3.04026L17.0843 2.36758C16.7563 2.00685 16.3038 1.58252 15.4792 1.50756L15.3886 2.50345ZM16.3443 3.04026C16.3422 3.03794 16.351 3.04771 16.3727 3.07862C16.3927 3.10701 16.4179 3.14506 16.4485 3.1934C16.5096 3.29007 16.5851 3.41715 16.6724 3.56966C16.8468 3.87415 17.0603 4.26615 17.2858 4.69017C17.7363 5.53751 18.228 6.50006 18.5369 7.11799L19.4314 6.67077C19.1195 6.04708 18.624 5.07691 18.1687 4.22068C17.9412 3.79291 17.7221 3.39042 17.5402 3.07272C17.4494 2.91414 17.3659 2.77322 17.2939 2.65934C17.2282 2.55521 17.154 2.44431 17.0843 2.36758L16.3443 3.04026Z" fill="white"/>
</svg>
