<svg width="33" height="33" viewBox="0 0 33 33" fill="none" xmlns="http://www.w3.org/2000/svg">
<path d="M3 2H7.75342C8.3275 2.11355 9.517 2.73579 9.68234 4.31637C9.84768 5.89695 11.0372 17.1472 11.6113 22.5748C11.5883 22.9836 11.997 23.8693 12.7135 24.1418C13.6091 24.4824 13.8846 24.4824 14.7113 24.5506C15.3727 24.6051 23.4374 24.5733 27.3871 24.5506M19.8092 4.31637V12.7643M19.8092 12.7643L23.5293 10.6523M19.8092 12.7643L16.6402 10.6523" stroke="#E9EDD9" stroke-linecap="round"/>
<circle cx="15.1936" cy="27.742" r="1.75806" stroke="#E9EDD9" stroke-linecap="round"/>
<circle cx="25.1289" cy="27.742" r="1.75806" stroke="#E9EDD9" stroke-linecap="round"/>
<path d="M31 8.32257L29.1306 17.3865C29.0152 18.2792 28.4382 20.0645 27.0535 20.0645C25.6688 20.0645 16.2312 20.0645 11.5 20.0645" stroke="#E9EDD9" stroke-linecap="round"/>
</svg>
