<svg width="32" height="32" viewBox="0 0 32 32" fill="none" xmlns="http://www.w3.org/2000/svg">
<path d="M27.1401 15.0896C27.1401 24.2913 18.3562 29.6818 10.9122 25.8649C10.6725 25.7193 10.4049 25.6257 10.1267 25.5902C9.84849 25.5547 9.56593 25.5781 9.29738 25.6589C8.35829 25.9394 7.39058 26.1225 6.43431 26.3457C5.3807 26.5917 5.35207 26.5631 5.61547 25.4701C5.61547 25.3442 5.6613 25.2183 5.70138 25.0981C6.31693 23.2672 6.24981 21.2756 5.51241 19.4901C3.88046 14.9579 5.03712 10.8149 8.67895 7.60459C12.1146 4.55452 16.226 3.95937 20.4119 5.76767C24.7695 7.64463 26.9683 11.1868 27.1401 15.0896Z" fill="white"/>
<path d="M4.21282 28.9897C3.35963 28.9897 2.86147 28.5319 2.97599 27.7994C3.11342 26.9296 3.38827 26.0827 3.5486 25.2129C3.64595 24.7036 3.92651 24.858 4.24144 24.8981C4.67663 24.9553 4.74537 25.1499 4.62512 25.5447C4.46479 26.0598 4.39032 26.5977 4.24144 27.107C4.09256 27.6163 4.17273 27.8967 4.81406 27.6792C5.32941 27.5304 5.8677 27.4561 6.38305 27.3015C6.7438 27.1985 6.95566 27.1699 7.05873 27.6392C7.12745 28.0111 7.21906 28.2858 6.69225 28.3831C5.81043 28.5548 4.95722 28.8123 4.21282 28.9897Z" fill="white"/>
<path d="M9.57229 26.569C9.79525 26.5562 10.0157 26.6209 10.1964 26.7521C10.9361 27.1769 11.7296 27.5003 12.5556 27.7135C13.0824 27.8394 13.0767 28.0797 12.9736 28.5146C12.8304 29.0868 12.5041 28.8923 12.1834 28.7778C11.6108 28.5604 10.9866 28.3773 10.4197 28.1083C10.1864 27.9505 9.9189 27.85 9.63925 27.8152C9.35961 27.7804 9.0757 27.8122 8.8107 27.908C8.40987 28.0797 8.19226 27.908 8.07201 27.4846C7.95176 27.0611 8.14647 26.8723 8.55875 26.8093C8.97103 26.7464 9.23445 26.6491 9.57229 26.569Z" fill="white"/>
<path d="M5.39235 22.26C5.26638 22.8323 5.18049 23.25 5.07169 23.6792C4.99725 23.971 4.77394 23.9939 4.5449 23.8909C4.31585 23.7879 3.88066 23.8394 3.97228 23.5132C4.51054 22.054 3.39968 20.9954 3.09047 19.7421C2.91868 19.0211 3.29661 19.0097 3.73179 18.9238C3.83486 18.9238 4.04101 18.9582 4.05819 19.0211C4.41098 20.1363 4.85727 21.2198 5.39235 22.26Z" fill="white"/>
<path d="M19.387 3.02691C20.5204 3.33252 21.6111 3.7785 22.6338 4.35451C22.9659 4.53763 22.8857 4.74364 22.7196 4.96682C22.5536 5.18999 22.5478 5.5734 22.147 5.3445C21.244 4.83415 20.2827 4.43449 19.2839 4.15422C18.8258 4.03405 19.0263 3.74221 19.0721 3.47897C19.1179 3.21574 19.1293 2.96969 19.387 3.02691Z" fill="white"/>
<path d="M5.43828 9.70538L5.17487 10.209C4.77519 10.9328 4.46192 11.7011 4.2415 12.4979C4.1327 12.9386 4.00102 13.1274 3.47422 12.9844C2.83861 12.8184 3.0791 12.4922 3.17645 12.1317C3.45083 11.195 3.83525 10.2942 4.32168 9.44786C4.43047 9.2533 4.53353 9.00724 4.81412 9.19036C5.0947 9.37348 5.36384 9.36203 5.43828 9.70538Z" fill="white"/>
<path d="M28.9554 19.3988C28.6522 20.5422 28.1957 21.6394 27.5983 22.6606C27.3979 23.0097 27.1746 22.7751 26.9684 22.6606C26.7623 22.5462 26.4359 22.4317 26.665 22.0311C27.1689 21.1572 27.5541 20.22 27.8102 19.2443C27.919 18.8151 28.1767 18.9238 28.463 18.9982C28.7493 19.0726 29.0069 19.044 28.9554 19.3988Z" fill="white"/>
<path d="M8.71339 6.00264C8.65445 6.08899 8.58731 6.16948 8.51295 6.24299C7.66454 6.91611 6.89605 7.68411 6.22249 8.53198C5.96482 8.86388 5.78733 8.53197 5.59836 8.41752C5.4094 8.30307 5.1288 8.14284 5.36357 7.84527C6.04867 6.93937 6.85389 6.13081 7.7571 5.44183C7.92888 5.31594 8.09493 5.24727 8.24954 5.44183C8.40414 5.6364 8.55306 5.79663 8.71339 6.00264Z" fill="white"/>
<path d="M26.7107 8.03447C26.6306 8.32059 26.3614 8.39497 26.1782 8.56092C25.995 8.72687 25.7945 8.56093 25.6571 8.38926C25.0493 7.62351 24.3514 6.93376 23.5785 6.33489C23.2464 6.08311 23.3208 5.89999 23.5442 5.65392C23.7675 5.40785 23.8305 5.08166 24.197 5.39067C25.1031 6.07597 25.9105 6.8828 26.5962 7.78839C26.6437 7.86575 26.6821 7.94833 26.7107 8.03447Z" fill="white"/>
<path d="M23.9735 26.6497C23.6701 26.6497 23.6128 26.3293 23.4467 26.1576C23.2807 25.9859 23.3666 25.7857 23.5613 25.6311C24.3547 25.008 25.07 24.2913 25.6914 23.4967C25.9204 23.2048 26.0979 23.2849 26.3041 23.4967C26.5102 23.7084 26.8767 23.7713 26.6133 24.1433C25.9181 25.0804 25.0862 25.9079 24.1453 26.5982C24.0902 26.6219 24.0326 26.6392 23.9735 26.6497Z" fill="white"/>
<path d="M22.2444 26.5176C22.6223 26.5176 22.6338 26.8724 22.817 27.0898C23.0002 27.3073 22.817 27.4847 22.6338 27.6106C21.6702 28.157 20.6433 28.5837 19.576 28.881C19.3355 28.9553 19.1064 28.9096 19.095 28.6063C19.0835 28.303 18.74 27.994 19.1293 27.8566C20.2158 27.5317 21.2611 27.0824 22.2444 26.5176Z" fill="white"/>
<path d="M13.0424 3.73103C13.1226 4.05721 12.905 4.103 12.6817 4.17167C11.7326 4.42785 10.8232 4.81294 9.97891 5.31616C9.54945 5.59656 9.45785 5.26464 9.28034 5.01286C9.10283 4.76107 9.10853 4.51502 9.43492 4.3319C10.3761 3.81151 11.3731 3.39878 12.4068 3.10156C13.0596 2.87838 12.8935 3.46207 13.0424 3.73103Z" fill="white"/>
<path d="M28.9439 12.481C29.0184 12.8472 28.7721 12.8987 28.5087 12.9502C28.2453 13.0017 27.9361 13.1906 27.8388 12.7328C27.5768 11.7283 27.1759 10.7653 26.6477 9.87155C26.4302 9.51104 26.7394 9.44809 26.9341 9.29931C27.1287 9.15052 27.4208 8.96169 27.6384 9.33937C28.2029 10.3281 28.6414 11.3835 28.9439 12.481Z" fill="white"/>
<path d="M15.997 3.71951C15.5561 3.71951 15.1095 3.71951 14.6743 3.79391C14.2391 3.8683 14.0673 3.64512 13.9986 3.22166C13.9299 2.7982 14.1761 2.64941 14.5311 2.64941C15.5389 2.64941 16.5467 2.64941 17.5545 2.64941C17.8637 2.64941 18.1271 2.73524 18.0355 3.15298C17.9439 3.57072 17.9382 3.8454 17.4113 3.77101C16.8845 3.69662 16.4551 3.7424 15.997 3.71951Z" fill="white"/>
<path d="M3.73736 16.0228C3.73725 16.4644 3.76018 16.9056 3.80607 17.3447C3.87478 17.8426 3.58275 17.917 3.23346 17.9799C2.75246 18.06 2.70093 17.7338 2.70093 17.4077C2.70093 16.4348 2.70093 15.4563 2.70093 14.4835C2.70093 14.2031 2.70092 13.8655 3.15328 13.9456C3.60565 14.0257 3.90913 14.0314 3.82896 14.6094C3.79745 15.08 3.79745 15.5522 3.82896 16.0228H3.73736Z" fill="white"/>
<path d="M28.2683 15.9662C28.2703 15.5361 28.2474 15.1062 28.1996 14.6787C28.1137 14.158 28.3943 14.0263 28.818 13.9748C29.2417 13.9233 29.3219 14.2724 29.3219 14.5471C29.3219 15.5199 29.3219 16.4984 29.3219 17.477C29.3219 17.7631 29.2818 18.0836 28.8466 17.9805C28.526 17.9062 28.1251 17.929 28.1938 17.4083C28.2625 16.8876 28.2454 16.4527 28.2683 15.9662Z" fill="white"/>
<path d="M15.9569 29.3334C15.4874 29.3334 15.0121 29.2991 14.5426 29.2705C14.2219 29.2705 13.8726 29.2705 13.97 28.7497C14.0444 28.4064 14.0787 28.1031 14.5941 28.1374C15.5077 28.1861 16.4233 28.1861 17.3369 28.1374C17.8065 28.1374 17.9095 28.3091 18.0012 28.7097C18.0928 29.1102 17.8007 29.2819 17.4629 29.2819C16.959 29.2819 16.4551 29.2819 15.9454 29.2819L15.9569 29.3334Z" fill="white"/>
</svg>
