<svg width="39" height="39" viewBox="0 0 39 39" fill="none" xmlns="http://www.w3.org/2000/svg">
<circle cx="19.5" cy="19.5" r="19.5" fill="#0F2617"/>
<path opacity="0.6" d="M19.2227 18.6339C19.3037 18.6015 19.3848 18.5528 19.4659 18.5204C19.401 18.4717 19.3362 18.4231 19.2713 18.3745C19.2389 18.4717 19.2227 18.5528 19.2227 18.6339Z" fill="#2B4835"/>
<path d="M28.5961 14.0608C27.6231 13.4608 26.5042 13.1365 25.3528 13.1365C22.4177 13.1365 19.9365 15.196 19.3203 17.9852C19.4825 18.1149 19.6609 18.2447 19.8392 18.3582C20.0501 18.2609 20.2771 18.1798 20.4879 18.1149C20.5041 18.1149 20.5203 18.0987 20.5203 18.0987C21.1366 17.9204 21.769 17.8231 22.4014 17.8231C23.7636 17.8231 25.1258 18.2447 26.2447 19.0717C26.8447 18.5852 27.3474 18.0014 27.7529 17.3203C28.3529 16.3311 28.6285 15.2122 28.5961 14.0608Z" fill="#238C32"/>
<path d="M27.7695 21.2934C26.9912 19.9312 25.7263 18.9258 24.2181 18.4717C22.9046 18.0663 21.51 18.115 20.2451 18.6015C21.4289 19.3474 22.337 20.4177 22.8722 21.715C22.8722 21.7312 22.9695 21.9583 22.9857 21.9907C23.2614 22.7042 23.3911 23.4664 23.4235 24.2286V24.5367C23.4235 24.7475 23.4073 24.9583 23.3749 25.1691C24.0073 25.3799 24.6722 25.4934 25.3533 25.4934C26.5047 25.4934 27.6236 25.1691 28.5966 24.5691C28.629 23.4177 28.3533 22.2988 27.7695 21.2934Z" fill="#238C32"/>
<path opacity="0.6" d="M19.7901 19.9637C19.709 19.9961 19.628 20.0447 19.5469 20.0772C19.6117 20.1258 19.6928 20.1745 19.7577 20.2231C19.7577 20.1583 19.7739 20.061 19.7901 19.9637Z" fill="#2B4835"/>
<path d="M19.6777 20.6447C19.5155 20.515 19.3371 20.3852 19.1587 20.2717C19.0128 20.3366 18.8506 20.4015 18.6884 20.4501C17.6668 20.7906 16.5803 20.8879 15.51 20.7096C14.5046 20.5474 13.5478 20.142 12.737 19.5582C12.137 20.0447 11.6343 20.6285 11.2289 21.2934C10.6613 22.2826 10.3694 23.4177 10.4019 24.5691C11.3748 25.1691 12.4938 25.4934 13.6451 25.4934C15.2343 25.4934 16.7425 24.8934 17.9101 23.7907C18.802 22.915 19.4182 21.8285 19.6777 20.6447Z" fill="#238C32"/>
<path d="M18.7528 20.0123C17.569 19.2663 16.6609 18.196 16.1258 16.8987C16.1096 16.8663 16.0285 16.6393 16.0285 16.623C15.7528 15.9095 15.6231 15.1474 15.5906 14.3852V14.0771C15.5906 13.8663 15.6069 13.6554 15.6393 13.4446C15.0068 13.2338 14.342 13.1203 13.6609 13.1203C12.5095 13.1203 11.3906 13.4446 10.4176 14.0446C10.3852 15.196 10.6608 16.3149 11.2446 17.3204C12.023 18.6825 13.2879 19.688 14.796 20.142C16.0934 20.5474 17.488 20.4988 18.7528 20.0123Z" fill="#238C32"/>
<path d="M22.547 26.9043C22.547 26.8881 22.6443 26.6448 22.6443 26.6448C22.9037 25.9637 23.0335 25.2502 23.0497 24.5205V24.2286C23.0335 23.4988 22.9037 22.7853 22.6443 22.1042C22.6443 22.088 22.547 21.861 22.547 21.8448C21.9956 20.5312 21.0551 19.4609 19.8064 18.7474C18.9956 18.2771 18.3307 17.6123 17.8766 16.8177C17.7793 16.6393 17.601 16.2663 17.5361 16.1041C17.2928 15.4717 17.1793 14.8068 17.1955 14.1257C17.2118 13.4284 17.3577 12.7473 17.6496 12.1149C17.7145 11.9689 17.8929 11.6446 17.8929 11.6284L17.9577 11.5149C18.3469 10.8662 18.8658 10.3311 19.4821 9.90946C20.1469 10.3635 20.6983 10.9635 21.0875 11.6608C21.4443 12.3095 21.6713 13.023 21.7524 13.769C22.028 13.5744 22.4497 13.3311 22.9524 13.1527C22.8064 12.2771 22.4821 11.4338 21.9956 10.7041C21.4443 9.84459 20.6983 9.14729 19.8064 8.62836C19.7253 8.57971 19.6442 8.53106 19.5469 8.48241L19.4983 8.44998L19.4334 8.48241C19.3361 8.53106 19.255 8.57971 19.174 8.62836C17.9415 9.34189 16.9847 10.4122 16.4334 11.7257C16.4334 11.7419 16.3361 11.9689 16.3361 11.9852C16.0766 12.6663 15.9469 13.3798 15.9307 14.1095V14.4014C15.9469 15.1312 16.0766 15.8447 16.3361 16.5258C16.3361 16.542 16.4334 16.769 16.4334 16.7852C16.9847 18.0988 17.9253 19.169 19.174 19.8826C19.9848 20.3528 20.6496 21.0177 21.1037 21.8123C21.201 21.9907 21.3794 22.3637 21.4442 22.5258C21.6875 23.1583 21.801 23.8232 21.7848 24.5042C21.7686 25.2016 21.6226 25.8826 21.3307 26.5151C21.2659 26.661 21.0875 26.9854 21.0875 27.0016L21.0226 27.1151C20.6334 27.7637 20.1145 28.2989 19.4983 28.7205C18.8334 28.2665 18.282 27.6664 17.8929 26.9691C17.5523 26.3691 17.3415 25.7043 17.2604 25.0232C16.8064 25.2989 16.3685 25.4934 16.0604 25.6232C16.2226 26.4502 16.5469 27.2448 17.0009 27.9421C17.5523 28.8016 18.2983 29.4989 19.1902 30.0178C19.2712 30.0665 19.3523 30.1151 19.4496 30.1638L19.5145 30.1962L19.5631 30.1638C19.6604 30.1151 19.7415 30.0665 19.8226 30.0178C21.0551 29.2881 21.9956 28.2178 22.547 26.9043Z" fill="#2FF141"/>
</svg>
