<svg width="33" height="33" viewBox="0 0 33 33" fill="none" xmlns="http://www.w3.org/2000/svg">
<path d="M23.2074 7.81583C23.1212 7.08198 22.2375 5.82735 20.8151 5.8733C18.8107 5.93805 18.3581 7.23307 18.3581 8.01008C18.3581 8.78708 18.5521 9.56409 20.8151 10.0173C23.078 10.4706 23.7246 11.5066 23.4013 13.0606C23.078 14.6146 20.2332 14.8089 19.5866 14.4204C18.5521 13.7988 18.0995 12.5426 18.0348 12.4779M20.8151 15.9744V4.70779M4.90955 28.7951L2 24.392L5.55611 21.9315L6.12156 22.7733M6.26733 30.7376L6.84924 31.5146L10.3407 29.0541L9.77525 28.2123M6.12156 22.7733L10.7286 19.73C11.0304 19.5357 11.8278 19.2249 12.6037 19.5357C13.3796 19.8465 18.8323 21.6509 21.4616 22.5142C21.9142 22.6629 22.2375 23.2913 22.0435 24.392C21.8659 25.4002 20.7504 25.6223 20.4271 25.5575C20.1685 25.5057 17.3021 24.7589 15.9012 24.392M6.12156 22.7733L9.77525 28.2123M9.77525 28.2123L10.7286 27.5001C10.9873 27.3706 11.6726 27.1504 12.3451 27.3058C13.0175 27.4612 16.9357 28.6656 18.8107 29.2483C19.3064 29.4642 20.5306 29.7275 21.4616 29.0541C22.3927 28.3807 27.0221 25.2338 29.2204 23.7445C29.6027 23.4855 30.3196 22.2552 29.5437 21.284C28.8372 20.3995 27.6687 20.766 27.6687 20.766C27.6687 20.766 25.535 22.1042 24.6945 22.7733" stroke="white" stroke-linecap="round"/>
<path d="M28.8484 10.394C28.8484 14.7463 25.2611 18.2881 20.819 18.2881C16.3769 18.2881 12.7896 14.7463 12.7896 10.394C12.7896 6.0418 16.3769 2.5 20.819 2.5C25.2611 2.5 28.8484 6.0418 28.8484 10.394Z" stroke="white" stroke-linecap="round"/>
</svg>
