<svg width="24" height="24" viewBox="0 0 24 24" fill="none" xmlns="http://www.w3.org/2000/svg">
<path d="M18.1088 10.884C18.1088 9.24916 17.472 7.68122 16.3387 6.52518C15.2053 5.36913 13.6681 4.71967 12.0653 4.71967C10.4624 4.71967 8.92523 5.36913 7.79186 6.52518C6.65848 7.68122 6.02175 9.24916 6.02175 10.884C6.02175 18.0758 3 20.1306 3 20.1306H21.1305C21.1305 20.1306 18.1088 18.0758 18.1088 10.884Z" stroke="white" stroke-linecap="round" stroke-linejoin="round"/>
<path d="M13.8783 3.81305C13.8783 3.3322 13.6873 2.87104 13.3473 2.53103C13.0073 2.19102 12.5461 2 12.0652 2C11.5844 2 11.1232 2.19102 10.7832 2.53103C10.4432 2.87104 10.2522 3.3322 10.2522 3.81305" stroke="white" stroke-linecap="round" stroke-linejoin="round"/>
<path d="M14.7849 20.1305C14.7849 21.6325 13.5673 22.8501 12.0653 22.8501C10.5633 22.8501 9.3457 21.6325 9.3457 20.1305" stroke="white" stroke-linecap="round" stroke-linejoin="round"/>
</svg>
